<svg width="1811" height="471" viewBox="0 0 1811 471" fill="none" xmlns="http://www.w3.org/2000/svg">
<path d="M121.2 438H26.8V171.2H147.2C164.267 171.2 179.333 173.067 192.4 176.8C205.733 180.533 217.867 187.867 228.8 198.8C245.6 215.6 254 237.467 254 264.4C254 284.133 249.067 300 239.2 312C230.4 322.933 218.133 330 202.4 333.2V335.6C208.533 338.8 213.2 342.933 216.4 348L276.4 438H164.8L126.4 360C126.133 359.467 125.733 358.8 125.2 358C124.667 356.933 124.133 356 123.6 355.2C123.333 354.133 123.067 352.933 122.8 351.6L121.2 352.4V438ZM121.2 244.4V290H132.4C141.467 290 148.267 288 152.8 284C157.333 280 159.6 274.533 159.6 267.6C159.6 260.667 157.867 255.333 154.4 251.6C150.133 246.8 144.667 244.4 138 244.4H121.2ZM585.019 304.4C585.019 343.6 572.619 375.867 547.819 401.2C519.819 429.733 482.885 444 437.019 444C391.152 444 354.219 429.733 326.219 401.2C301.419 375.867 289.019 343.6 289.019 304.4C289.019 265.467 301.419 233.333 326.219 208C354.219 179.467 391.152 165.2 437.019 165.2C482.885 165.2 519.819 179.467 547.819 208C572.619 233.333 585.019 265.467 585.019 304.4ZM437.019 251.2C422.352 251.2 410.752 255.733 402.219 264.8C392.085 275.467 387.019 288.8 387.019 304.8C387.019 321.067 392.085 334.267 402.219 344.4C411.285 353.467 422.885 358 437.019 358C451.152 358 462.752 353.467 471.819 344.4C481.952 334.267 487.019 321.067 487.019 304.8C487.019 287.733 481.952 274.4 471.819 264.8C462.752 255.733 451.152 251.2 437.019 251.2ZM823.6 188.4L797.6 256.4C778.4 243.067 760.267 236.4 743.2 236.4C735.2 236.4 729.067 238 724.8 241.2C721.6 243.6 720 246.8 720 250.8C720 253.2 720.267 255.067 720.8 256.4C721.333 257.733 722.8 259.2 725.2 260.8C727.6 262.4 731.067 263.733 735.6 264.8L766.4 271.6C785.867 275.867 801.067 283.467 812 294.4C825.6 307.733 832.4 325.333 832.4 347.2C832.4 372.267 824.4 393.2 808.4 410C786.267 432.667 754.933 444 714.4 444C701.867 444 689.333 442.667 676.8 440C664.267 437.6 655.067 435.333 649.2 433.2C643.333 431.067 634.8 427.733 623.6 423.2L614.8 419.6L644 344.4L654.4 352.4C671.467 365.467 689.467 372 708.4 372C718.267 372 725.2 370.4 729.2 367.2C732.667 364.267 734.4 360.267 734.4 355.2C734.4 351.2 733.333 348.133 731.2 346C729.067 343.867 722.933 341.733 712.8 339.6L689.2 335.2C669.467 331.467 654 323.867 642.8 312.4C630 299.333 623.6 282.933 623.6 263.2C623.6 238.133 632.267 216.933 649.6 199.6C672 176.667 702.933 165.2 742.4 165.2C770.933 165.2 798 172.933 823.6 188.4ZM1017.71 171.2L954.509 303.2H883.309L926.109 171.2H1017.71ZM1243.52 188.4L1217.52 256.4C1198.32 243.067 1180.19 236.4 1163.12 236.4C1155.12 236.4 1148.99 238 1144.72 241.2C1141.52 243.6 1139.92 246.8 1139.92 250.8C1139.92 253.2 1140.19 255.067 1140.72 256.4C1141.26 257.733 1142.72 259.2 1145.12 260.8C1147.52 262.4 1150.99 263.733 1155.52 264.8L1186.32 271.6C1205.79 275.867 1220.99 283.467 1231.92 294.4C1245.52 307.733 1252.32 325.333 1252.32 347.2C1252.32 372.267 1244.32 393.2 1228.32 410C1206.19 432.667 1174.86 444 1134.32 444C1121.79 444 1109.26 442.667 1096.72 440C1084.19 437.6 1074.99 435.333 1069.12 433.2C1063.26 431.067 1054.72 427.733 1043.52 423.2L1034.72 419.6L1063.92 344.4L1074.32 352.4C1091.39 365.467 1109.39 372 1128.32 372C1138.19 372 1145.12 370.4 1149.12 367.2C1152.59 364.267 1154.32 360.267 1154.32 355.2C1154.32 351.2 1153.26 348.133 1151.12 346C1148.99 343.867 1142.86 341.733 1132.72 339.6L1109.12 335.2C1089.39 331.467 1073.92 323.867 1062.72 312.4C1049.92 299.333 1043.52 282.933 1043.52 263.2C1043.52 238.133 1052.19 216.933 1069.52 199.6C1091.92 176.667 1122.86 165.2 1162.32 165.2C1190.86 165.2 1217.92 172.933 1243.52 188.4Z" fill="#F3953F"/>
<path d="M1543.75 404.8H1470.15L1462.95 438H1360.55L1452.95 171.2H1560.15L1655.35 438H1552.55L1543.75 404.8ZM1514.55 290.4C1512.41 281.333 1510.68 271.333 1509.35 260.4H1505.75C1505.48 270 1504.01 280 1501.35 290.4L1488.15 341.6H1526.95L1514.55 290.4ZM1779.07 438H1682.27V171.2H1779.07V438Z" fill="#7C7F85"/>
<path d="M356.6 117C356.6 106.333 359.8 98.6 366.2 93.8C372.6 88.7333 380.467 86.2 389.8 86.2C398.867 86.2 406.733 88.7333 413.4 93.8C420.067 98.6 423.4 106.333 423.4 117C423.4 127.4 420.067 135.133 413.4 140.2C406.733 145 398.867 147.4 389.8 147.4C380.467 147.4 372.6 145 366.2 140.2C359.8 135.133 356.6 127.4 356.6 117ZM450.2 117C450.2 106.333 453.4 98.6 459.8 93.8C466.2 88.7333 474.2 86.2 483.8 86.2C492.867 86.2 500.733 88.7333 507.4 93.8C514.067 98.6 517.4 106.333 517.4 117C517.4 127.4 514.067 135.133 507.4 140.2C500.733 145 492.867 147.4 483.8 147.4C474.2 147.4 466.2 145 459.8 140.2C453.4 135.133 450.2 127.4 450.2 117Z" fill="#F3953F"/>
</svg>
